<?xml version="1.0" encoding="UTF-8"?>
<svg id="Layer_1" xmlns="http://www.w3.org/2000/svg" version="1.1" viewBox="1070.7 252.1 217.2 342.4">
  <!-- Generator: Adobe Illustrator 29.8.1, SVG Export Plug-In . SVG Version: 2.1.1 Build 2)  -->
  <defs>
    <style>
      .st0 {
        fill: #010101;
      }
    </style>
  </defs>
  <g>
    <path class="st0" d="M1279.83,404.17c-1.33-2.99-3.16-5.81-5.56-8.3l-40.92-36.59-40.23,41.6,19.72,17.64-95.41,95.41c2.05-.37,4.16-.57,6.31-.57,19.48,0,35.27,15.79,35.27,35.27,0,2.16-.2,4.26-.57,6.31l116.41-116.41c9.3-9.3,10.95-23.35,4.96-34.35Z"/>
    <circle class="st0" cx="1114" cy="557.32" r="29.15"/>
    <path class="st0" d="M1185.2,316.46l-75.67,72.94c-11.32,11.32-11.32,29.68,0,41.01,5.66,5.66,13.08,8.49,20.5,8.49s14.84-2.83,20.5-8.49l123.46-120.73c11.32-11.32,11.32-29.68,0-41.01-5.77-5.77-13.37-8.58-20.93-8.47l.09-.09-174.48.02,56.34,56.34h50.19Z"/>
  </g>
</svg>