<?xml version="1.0" encoding="UTF-8"?>
<svg id="Layer_1" xmlns="http://www.w3.org/2000/svg" version="1.1" viewBox="211.0 465.2 714.1 132.4">
  <!-- Generator: Adobe Illustrator 29.8.1, SVG Export Plug-In . SVG Version: 2.1.1 Build 2)  -->
  <defs>
    <style>
      .st0 {
        fill: #010101;
      }
    </style>
  </defs>
  <path class="st0" d="M722.32,482.58l-17.43,72.16h-14.97v-.02c-5.47-.17-9.85-4.64-9.85-10.14,0-.86.12-1.7.32-2.5l-.02-.03,14.37-59.47h27.58ZM796.02,482.58l-8.96,37.11-21.65-37.11h-31.15l-14.25,58.98.07.1c-.28.93-.43,1.9-.43,2.92,0,5.6,4.54,10.15,10.14,10.16h0s0,0,0,0c0,0,0,0,0,0s0,0,0,0h14.6l9.03-37.4,22.45,37.4h30.29l17.43-72.16h-27.58ZM634.45,482.58h-27.58l-14.21,58.81h0c-.18,1.23-.18,1.91-.18,2.81,0,5.82,4.72,10.54,10.54,10.54h0s65.6,0,65.6,0l4.44-18.39h-51.6l12.99-53.76ZM912.69,500.97l4.44-18.39h-81.67l-14.02,58.05c-.4,1.12-.63,2.31-.63,3.57,0,5.82,4.72,10.54,10.54,10.54,0,0,0,0,0,0h0s71.71,0,71.71,0l4.44-18.39h-57.44l2.17-8.98h44.78l4.44-18.39h-44.78l1.93-8.01h54.08ZM394.6,491.02l10.11,63.72h-30.18l-1.43-6.6h-29.42l-4.3,6.6h-28.88l46.31-72.16h27.4c5.08,0,9.32,3.59,10.31,8.38l.08.06ZM372.13,529.75l-2.9-26.5-16.14,26.5h19.04ZM306.78,514.82c4.43,2.27,5.95,3.57,7.22,6.38,1.46,3.35,1.6,7.25.5,11.79-1.86,7.68-6.77,14.6-12.72,17.74-5.6,3.03-11.78,4-24.44,4h-45.25c-7.22,0-13.07-5.85-13.07-13.07,0-1.55.29-3.04.78-4.42l13.2-54.66h57.01c11.68,0,17.15.65,21.55,2.6,5.56,2.49,7.94,8.76,6.17,16.12-1.52,6.27-4.43,9.84-10.95,13.52ZM283.33,527.69c-1.28-.54-1.71-.54-10.34-.65h-23.15l-2.46,10.17h23.15c9.55-.11,9.65-.11,11.38-.97,1.59-.76,2.85-2.38,3.29-4.22.5-2.06-.11-3.57-1.87-4.33ZM276.5,500h-20.12l-2.27,9.41h20.01c5.73,0,7.06-.11,8.87-.43,2.27-.43,3.96-2.06,4.51-4.33.91-3.79-1.15-4.65-10.99-4.65ZM460.42,500.71c8.85-.02,28.69-.05,28.69-.05h14.78s6.27-18.05,6.27-18.05h-44.41c-8.33,0-15.37.45-21.15,1.34-4.36.57-7.85,1.37-10.48,2.4-6.5,2.52-10.87,7.14-13.14,13.84-.11.21-.21.41-.3.58.04,0,.08,0,.11,0-.46,1.47-.83,3.04-1.1,4.71-.38,2.4-.44,4.57-.18,6.52h.06c-.05.62-.04,1.24.03,1.83,1.13,8.48,11.21,12.77,30.25,12.86h17.12c4.3,0,6.61,1.16,6.92,3.47.07.55.06,1.2-.04,1.94-.49,3.05-3.69,4.24-9.4,4.24h-32.26s-4.24-.16-9.17,1.98c-4.93,2.14-6.8,7.11-6.8,7.11l-4.39,9.27,49.53.04c14.62,0,25.61-1.47,31.51-3.78,8.09-3.14,12.9-9.52,14.42-19.13.38-2.4.44-4.57.18-6.52-.76-5.73-4.45-9.75-11.07-12.06-4.94-1.75-12.32-2.63-22.13-2.63h-14.27c-4.3,0-6.61-1.16-6.92-3.47-.07-.55-.06-1.2.04-1.94.43-2.67,2.86-4.17,7.27-4.5ZM584.77,524.48c-.47-1.06-1.13-2.07-1.98-2.96l-14.58-13.04-14.33,14.82,7.03,6.28-33.99,33.99c.73-.13,1.48-.2,2.25-.2,6.94,0,12.57,5.63,12.57,12.57,0,.77-.07,1.52-.2,2.25l41.48-41.48c3.31-3.31,3.9-8.32,1.77-12.24ZM536.07,579.05c0-5.74-4.65-10.38-10.38-10.38s-10.38,4.65-10.38,10.38,4.65,10.38,10.38,10.38,10.38-4.65,10.38-10.38ZM551.05,493.24l-26.96,25.99c-4.03,4.03-4.03,10.58,0,14.61,2.02,2.02,4.66,3.03,7.31,3.03s5.29-1.01,7.31-3.03l43.99-43.01c4.03-4.03,4.03-10.58,0-14.61-2.06-2.06-4.76-3.06-7.46-3.02l.03-.03h-62.17s20.07,20.08,20.07,20.08h17.88Z"/>
  <g>
    <path class="st0" d="M379.66,571.27l-.78,2.86h-7.55l-1.26,4.76h5.78l-.75,2.81h-5.8l-2.05,7.73h-3.67l4.87-18.16h11.22Z"/>
    <path class="st0" d="M398.81,571.27l-4.85,18.16h-3.67l4.87-18.16h3.64Z"/>
    <path class="st0" d="M426.02,589.44h-3.67l-4.88-12.46-3.34,12.46h-3.67l4.87-18.19h3.64l4.91,12.49,3.34-12.49h3.64l-4.85,18.19Z"/>
    <path class="st0" d="M458.02,572.15c1.17.58,2.03,1.41,2.58,2.49.55,1.08.76,2.35.63,3.83-.06.66-.18,1.3-.36,1.93-.48,1.82-1.29,3.41-2.45,4.77-1.16,1.36-2.56,2.42-4.2,3.16s-3.43,1.12-5.36,1.12h-6.35l4.87-18.16h6.35c1.68,0,3.11.29,4.28.87ZM454.39,584.86c1.32-1.07,2.24-2.57,2.76-4.48.14-.57.23-1.07.26-1.48.13-1.46-.19-2.58-.98-3.38s-2-1.2-3.65-1.2h-2.55l-3.23,12.15h2.55c1.91,0,3.52-.54,4.84-1.61Z"/>
    <path class="st0" d="M508.02,571.27l-9.29,11.84-1.69,6.32h-3.67l1.72-6.32-3.01-11.84h4.11l1.67,8.25,6.06-8.25h4.11Z"/>
    <path class="st0" d="M565.31,571.27l-2.99,11.21c-.11.49-.18.82-.2,1.02-.08.9.12,1.59.62,2.07.49.48,1.24.72,2.23.72,1.18,0,2.18-.33,2.99-.98.81-.65,1.39-1.59,1.73-2.82l2.99-11.21h3.67l-2.99,11.21c-.42,1.56-1.1,2.88-2.05,3.94-.95,1.07-2.05,1.86-3.3,2.39-1.25.53-2.57.79-3.96.79-1.84,0-3.28-.48-4.33-1.43-1.05-.95-1.49-2.32-1.33-4.11.04-.49.14-1.02.3-1.59l2.99-11.21h3.64Z"/>
    <path class="st0" d="M603.71,572.54c.88.84,1.25,1.94,1.13,3.29-.03.33-.09.67-.17,1.02-.31,1.18-.94,2.25-1.89,3.21-.95.96-2.16,1.64-3.63,2.02l2.38,7.36h-4.24l-2.06-7.08h-1.74l-1.89,7.08h-3.67l4.87-18.16h6.82c1.86,0,3.22.42,4.1,1.26ZM601.03,576.3c.06-.66-.1-1.17-.48-1.53-.38-.36-1-.55-1.85-.55h-3.04l-1.45,5.44h3.04c.97,0,1.77-.24,2.4-.73.62-.49,1.05-1.15,1.29-2,.06-.31.1-.52.11-.62Z"/>
    <path class="st0" d="M640.58,574.11l-1.3,4.71h6.29l-.77,2.81h-6.29l-1.34,4.92h7.09l-.8,2.89h-10.87l5.02-18.19h10.84l-.77,2.86h-7.1Z"/>
    <path class="st0" d="M676.6,572.15c1.21.58,2.09,1.41,2.66,2.49s.78,2.35.65,3.83c-.06.66-.18,1.3-.37,1.93-.49,1.82-1.33,3.41-2.52,4.77-1.19,1.36-2.63,2.42-4.32,3.16-1.7.75-3.53,1.12-5.51,1.12h-6.53l5.01-18.16h6.53c1.73,0,3.2.29,4.4.87ZM672.88,584.86c1.36-1.07,2.31-2.57,2.84-4.48.14-.57.23-1.07.27-1.48.14-1.46-.2-2.58-1.01-3.38s-2.06-1.2-3.76-1.2h-2.62l-3.33,12.15h2.62c1.96,0,3.62-.54,4.98-1.61Z"/>
    <path class="st0" d="M695.49,575.53c1.22-1.41,2.66-2.52,4.32-3.3s3.39-1.18,5.17-1.18c2.11,0,3.79.5,5.07,1.5,1.27,1,1.97,2.4,2.09,4.2h-4.31c-.21-.76-.64-1.34-1.28-1.74-.64-.4-1.46-.6-2.46-.6-1.11,0-2.16.24-3.15.73-.99.49-1.85,1.18-2.58,2.08-.73.9-1.25,1.94-1.58,3.12-.13.42-.22.89-.27,1.43-.13,1.42.2,2.54.99,3.34.79.81,1.94,1.21,3.46,1.21,1.41,0,2.68-.37,3.81-1.12s2.02-1.78,2.66-3.1h-6.43l.74-2.76h10.12l-.89,3.18c-.6,1.27-1.46,2.44-2.58,3.51-1.12,1.08-2.41,1.94-3.88,2.59-1.47.65-3.01.98-4.62.98s-2.96-.31-4.1-.94c-1.15-.63-2-1.5-2.57-2.61s-.78-2.42-.64-3.89c.05-.59.16-1.2.33-1.82.49-1.79,1.34-3.39,2.56-4.8Z"/>
    <path class="st0" d="M733.95,574.11l-1.3,4.71h6.29l-.77,2.81h-6.29l-1.34,4.92h7.09l-.8,2.89h-10.87l5.02-18.19h10.84l-.77,2.86h-7.1Z"/>
  </g>
</svg>