<?xml version="1.0" encoding="UTF-8"?>
<svg id="Layer_1" xmlns="http://www.w3.org/2000/svg" version="1.1" viewBox="211.8 244.3 714.1 132.3">
  <!-- Generator: Adobe Illustrator 29.8.1, SVG Export Plug-In . SVG Version: 2.1.1 Build 2)  -->
  <defs>
    <style>
      .st0 {
        fill: #010101;
      }
    </style>
  </defs>
  <path class="st0" d="M723.05,261.69l-17.43,72.16h-14.97v-.02c-5.47-.17-9.85-4.64-9.85-10.14,0-.86.12-1.7.32-2.5l-.02-.03,14.37-59.47h27.58ZM796.76,261.69l-8.96,37.11-21.65-37.11h-31.15l-14.25,58.98.07.1c-.28.93-.43,1.9-.43,2.92,0,5.6,4.54,10.15,10.14,10.16h0s0,0,0,0c0,0,0,0,0,0s0,0,0,0h14.6l9.03-37.4,22.45,37.4h30.29l17.43-72.16h-27.58ZM635.18,261.69h-27.58l-14.21,58.81h0c-.18,1.23-.18,1.91-.18,2.81,0,5.82,4.72,10.54,10.54,10.54h0s65.6,0,65.6,0l4.44-18.39h-51.6l12.99-53.76ZM913.43,280.08l4.44-18.39h-81.67l-14.02,58.05c-.4,1.12-.63,2.31-.63,3.57,0,5.82,4.72,10.54,10.54,10.54,0,0,0,0,0,0h0s71.71,0,71.71,0l4.44-18.39h-57.44l2.17-8.98h44.78l4.44-18.39h-44.78l1.93-8.01h54.08ZM395.33,270.13l10.11,63.72h-30.18l-1.43-6.6h-29.42l-4.3,6.6h-28.88l46.31-72.16h27.4c5.08,0,9.32,3.59,10.31,8.38l.08.06ZM372.86,308.86l-2.9-26.5-16.14,26.5h19.04ZM307.51,293.93c4.43,2.27,5.95,3.57,7.22,6.38,1.46,3.35,1.6,7.25.5,11.79-1.86,7.68-6.77,14.6-12.72,17.74-5.6,3.03-11.78,4-24.44,4h-45.25c-7.22,0-13.07-5.85-13.07-13.07,0-1.55.29-3.04.78-4.42l13.2-54.66h57.01c11.68,0,17.15.65,21.55,2.6,5.56,2.49,7.94,8.76,6.17,16.12-1.52,6.27-4.43,9.84-10.95,13.52ZM284.07,306.8c-1.28-.54-1.71-.54-10.34-.65h-23.15l-2.46,10.17h23.15c9.55-.11,9.65-.11,11.38-.97,1.59-.76,2.85-2.38,3.29-4.22.5-2.06-.11-3.57-1.87-4.33ZM277.24,279.11h-20.12l-2.27,9.41h20.01c5.73,0,7.06-.11,8.87-.43,2.27-.43,3.96-2.06,4.51-4.33.91-3.79-1.15-4.65-10.99-4.65ZM461.16,279.82c8.85-.02,28.69-.05,28.69-.05h14.78s6.27-18.05,6.27-18.05h-44.41c-8.33,0-15.37.45-21.15,1.34-4.36.57-7.85,1.37-10.48,2.4-6.5,2.52-10.87,7.14-13.14,13.84-.11.21-.21.41-.3.58.04,0,.08,0,.11,0-.46,1.47-.83,3.04-1.1,4.71-.38,2.4-.44,4.57-.18,6.52h.06c-.05.62-.04,1.24.03,1.83,1.13,8.48,11.21,12.77,30.25,12.86h17.12c4.3,0,6.61,1.16,6.92,3.47.07.55.06,1.2-.04,1.94-.49,3.05-3.69,4.24-9.4,4.24h-32.26s-4.24-.16-9.17,1.98c-4.93,2.14-6.8,7.11-6.8,7.11l-4.39,9.27,49.53.04c14.62,0,25.61-1.47,31.51-3.78,8.09-3.14,12.9-9.52,14.42-19.13.38-2.4.44-4.57.18-6.52-.76-5.73-4.45-9.75-11.07-12.06-4.94-1.75-12.32-2.63-22.13-2.63h-14.27c-4.3,0-6.61-1.16-6.92-3.47-.07-.55-.06-1.2.04-1.94.43-2.67,2.86-4.17,7.27-4.5ZM585.5,303.6c-.47-1.06-1.13-2.07-1.98-2.96l-14.58-13.04-14.33,14.82,7.03,6.28-33.99,33.99c.73-.13,1.48-.2,2.25-.2,6.94,0,12.57,5.63,12.57,12.57,0,.77-.07,1.52-.2,2.25l41.48-41.48c3.31-3.31,3.9-8.32,1.77-12.24ZM536.81,358.16c0-5.74-4.65-10.38-10.38-10.38s-10.38,4.65-10.38,10.38,4.65,10.38,10.38,10.38,10.38-4.65,10.38-10.38ZM551.79,272.35l-26.96,25.99c-4.03,4.03-4.03,10.58,0,14.61,2.02,2.02,4.66,3.03,7.31,3.03s5.29-1.01,7.31-3.03l43.99-43.01c4.03-4.03,4.03-10.58,0-14.61-2.06-2.06-4.76-3.06-7.46-3.02l.03-.03h-62.17s20.07,20.08,20.07,20.08h17.88Z"/>
</svg>